<svg width="162" height="26" viewBox="0 0 162 26" fill="none" xmlns="http://www.w3.org/2000/svg">
<path d="M30.6738 8.47656C30.6738 10.6211 29.9297 12.8887 28.4414 15.2793C26.4727 18.4316 23.6133 20.875 19.8633 22.6094C16.4062 24.2031 12.6914 25 8.71875 25H2.91797L9.28125 6.96484H15.627L10.2305 22.1875C12.5391 22.1875 14.8242 21.4785 17.0859 20.0605C19.3594 18.6426 21.0176 16.8906 22.0605 14.8047C22.998 12.9648 23.4668 11.4297 23.4668 10.1992C23.4668 8.18359 22.9043 6.73633 21.7793 5.85742C20.7715 5.08398 19.2246 4.69727 17.1387 4.69727H0.140625L2.84766 0.267578H19.8633C22.8047 0.267578 25.2539 0.888672 27.2109 2.13086C29.5195 3.5957 30.6738 5.71094 30.6738 8.47656ZM54 22.1875C53.4375 24.0625 52.002 25 49.6934 25H43.0312C41.1328 25 40.1836 24.3906 40.1836 23.1719C38.9062 24.625 37.3359 25.3516 35.4727 25.3516C34.1016 25.3516 32.9883 24.9297 32.1328 24.0859C31.2773 23.2422 30.8496 22.1406 30.8496 20.7812C30.8496 18.332 31.7871 16.3984 33.6621 14.9805C35.3613 13.6914 37.4648 13.0469 39.9727 13.0469H50.0098L46.7051 22.1875H54ZM42.6621 15.8594H38.7773L37.5469 19.9551C37.4766 20.2129 37.4414 20.4473 37.4414 20.6582C37.4414 21.6777 38.4375 22.1875 40.4297 22.1875L42.6621 15.8594ZM78.0469 22.1875C77.7422 23.2188 77.0684 23.9805 76.0254 24.4727C75.2871 24.8242 74.4961 25 73.6523 25H66.6387C65.0332 25 64.2305 24.4727 64.2305 23.418C64.2305 23.0664 64.3125 22.6562 64.4766 22.1875L65.8125 18.4082L59.7656 23.5234C58.3477 24.5078 57.1816 25 56.2676 25H53.0332L57.2344 13.0469H63.5801L61.5938 18.6719L66.9551 14.2773C68.4082 13.0938 69.9844 12.5254 71.6836 12.5723C72.832 12.6191 73.4062 13.2285 73.4062 14.4004C73.4062 14.834 73.3125 15.3203 73.125 15.8594L70.8574 22.1875H78.0469ZM89.9648 5.83984C89.9648 7.01172 89.5078 8.00781 88.5938 8.82812C87.6914 9.64844 86.6016 10.0586 85.3242 10.0586C84.0234 10.0586 82.916 9.64844 82.002 8.82812C81.0996 8.00781 80.6484 7.01172 80.6484 5.83984C80.6484 4.67969 81.0996 3.68945 82.002 2.86914C82.916 2.04883 84.0234 1.63867 85.3242 1.63867C86.6016 1.63867 87.6914 2.04883 88.5938 2.86914C89.5078 3.68945 89.9648 4.67969 89.9648 5.83984ZM91.2305 22.1875C90.9258 23.2188 90.293 23.9805 89.332 24.4727C88.6406 24.8242 87.8906 25 87.082 25H80.1387C78.4629 25 77.625 24.2969 77.625 22.8906C77.625 22.4922 77.707 22.0645 77.8711 21.6074L80.9297 13.0469H87.3105L84.0586 22.1875H91.2305ZM103.359 5.83984C103.359 7.01172 102.902 8.00781 101.988 8.82812C101.086 9.64844 99.9961 10.0586 98.7188 10.0586C97.418 10.0586 96.3105 9.64844 95.3965 8.82812C94.4941 8.00781 94.043 7.01172 94.043 5.83984C94.043 4.67969 94.4941 3.68945 95.3965 2.86914C96.3105 2.04883 97.418 1.63867 98.7188 1.63867C99.9961 1.63867 101.086 2.04883 101.988 2.86914C102.902 3.68945 103.359 4.67969 103.359 5.83984ZM104.625 22.1875C104.32 23.2188 103.688 23.9805 102.727 24.4727C102.035 24.8242 101.285 25 100.477 25H93.5332C91.8574 25 91.0195 24.2969 91.0195 22.8906C91.0195 22.4922 91.1016 22.0645 91.2656 21.6074L94.3242 13.0469H100.705L97.4531 22.1875H104.625ZM118.23 22.1875C117.938 23.2188 117.264 23.9805 116.209 24.4727C115.471 24.8242 114.68 25 113.836 25H107.068C105.334 25 104.467 24.4082 104.467 23.2246C104.467 22.9199 104.531 22.5742 104.66 22.1875L111.182 3.80078H117.404L110.848 22.1875H118.23ZM131.695 22.1875C131.402 23.2188 130.729 23.9805 129.674 24.4727C128.936 24.8242 128.145 25 127.301 25H120.533C118.799 25 117.932 24.4082 117.932 23.2246C117.932 22.9199 117.996 22.5742 118.125 22.1875L124.646 3.80078H130.869L124.312 22.1875H131.695ZM161.473 13.0469C161.004 14.9219 159.598 15.8594 157.254 15.8594H146.25C146.637 16.1172 146.953 16.5918 147.199 17.2832C147.445 17.9629 147.545 18.5547 147.498 19.0586C147.334 21.0156 146.473 22.5508 144.914 23.6641C143.426 24.7305 141.492 25.2695 139.113 25.2812C136.348 25.3047 134.221 24.7598 132.732 23.6465C131.408 22.6621 130.746 21.3672 130.746 19.7617C130.746 19.4453 130.775 19.1289 130.834 18.8125C131.139 17.043 132.018 15.6543 133.471 14.6465C135.018 13.5801 137.08 13.0469 139.658 13.0469H161.473ZM142.312 15.8594H138.287L136.705 20.3594C136.623 20.5938 136.582 20.8164 136.582 21.0273C136.582 22.0352 137.52 22.5391 139.395 22.5391C139.617 22.5391 139.811 22.5332 139.975 22.5215L142.312 15.8594Z" fill="#121111"/>
</svg>
